<?xml version="1.0" encoding="UTF-8" standalone="no"?>
<!-- Created with Inkscape (http://www.inkscape.org/) -->

<svg
   xmlns:dc="http://purl.org/dc/elements/1.1/"
   xmlns:cc="http://creativecommons.org/ns#"
   xmlns:rdf="http://www.w3.org/1999/02/22-rdf-syntax-ns#"
   xmlns:svg="http://www.w3.org/2000/svg"
   xmlns="http://www.w3.org/2000/svg"
   xmlns:sodipodi="http://sodipodi.sourceforge.net/DTD/sodipodi-0.dtd"
   xmlns:inkscape="http://www.inkscape.org/namespaces/inkscape"
   width="210mm"
   height="297mm"
   viewBox="0 0 210 297"
   version="1.1"
   id="svg8"
   sodipodi:docname="Bakgrunn_snitt.svg"
   inkscape:version="0.91 r13725">
  <defs
     id="defs2" />
  <sodipodi:namedview
     id="base"
     pagecolor="#ffffff"
     bordercolor="#666666"
     borderopacity="1.0"
     inkscape:pageopacity="0.0"
     inkscape:pageshadow="2"
     inkscape:zoom="0.49497474"
     inkscape:cx="562.91594"
     inkscape:cy="2012.2905"
     inkscape:document-units="mm"
     inkscape:current-layer="layer1"
     showgrid="false"
     inkscape:window-width="1920"
     inkscape:window-height="1138"
     inkscape:window-x="1912"
     inkscape:window-y="-8"
     inkscape:window-maximized="1" />
  <metadata
     id="metadata5">
    <rdf:RDF>
      <cc:Work
         rdf:about="">
        <dc:format>image/svg+xml</dc:format>
        <dc:type
           rdf:resource="http://purl.org/dc/dcmitype/StillImage" />
        <dc:title></dc:title>
      </cc:Work>
    </rdf:RDF>
  </metadata>
  <g
     inkscape:label="Layer 1"
     inkscape:groupmode="layer"
     id="layer1">
    <g
       id="g4350"
       transform="matrix(0.37870836,0,0,0.37870836,101.76213,-246.21259)" />
    <path
       inkscape:connector-curvature="0"
       id="path3737-0-8"
       style="fill:#000000;stroke-width:0.26458332"
       d="m 226.75331,-383.62011 0,-71.21514 c 5.49034,-8.78877 10.55858,-14.04829 17.48321,-20.38681 -3.16022,18.3501 -4.81976,38.49364 -4.89563,56.01799 0.26097,21.59124 1.12616,38.00552 4.90062,56.03092 -6.72909,-5.86723 -13.41399,-13.523 -17.4882,-20.44694 z m 17.30344,-35.68416 c 0.10451,-18.60405 1.89874,-38.70442 5.47949,-55.80867 22.07395,17.6873 29.56229,33.95521 29.47943,56.00234 -0.0829,22.04712 -10.34229,43.53061 -29.51493,55.78859 -3.43514,-20.15547 -5.46001,-37.477 -5.44399,-55.98226 z m 29.22846,0.0708 c 0.32113,-16.37668 -3.84941,-29.91636 -19.76718,-46.26256 -2.64538,16.18272 -3.51884,30.90383 -3.80794,46.22413 -0.0339,15.69283 1.65414,31.66658 3.7966,46.30924 15.63977,-16.25478 19.45737,-29.89413 19.77852,-46.27081 z m 11.98967,41.47631 0,-44.24458 5.79532,0.006 0.0127,44.34785 c 0.0761,5.19732 5.58097,8.57228 10.90981,8.59629 5.32886,0.024 10.76113,-3.25923 10.82581,-8.50548 l -0.008,-44.44182 5.83387,0.005 -0.0277,44.33622 c -0.29148,8.61504 -9.99874,14.47941 -16.8126,14.46504 -6.81386,-0.0144 -16.50227,-6.26529 -16.52871,-14.56524 z m -279.3121161,-69.36301 -10.14597,7.50664 -3.37699,-4.61376 28.7009601,-21.26257 -0.0478,101.98371 -7.49285,0.0257 -7.6037501,0.0263 z m 18.7842701,83.67044 0.003,-104.70104 11.28371,-8.36499 3.49973,4.54132 -8.92175,6.61024 -0.1002,101.85807 z m 7.86953,-0.004 12.81291,-37.9968 6.349937,19.03247 6.321115,18.96172 -6.079163,8.4e-4 -3.490236,-10.4709 -6.323213,-0.0529 -3.52462,10.52585 -3.01757,-0.002 z m 14.393915,-42.52504 5.050502,-15.26188 19.438065,57.78542 -10.158809,-2.9e-4 z m 54.492941,22.34595 0,-71.21514 c 5.49033,-8.78877 10.55858,-14.04829 17.4832,-20.38681 -3.16021,18.3501 -4.81976,38.49363 -4.89563,56.01799 0.26098,21.59124 1.12616,38.00552 4.90062,56.0309 -6.72908,-5.86722 -13.41399,-13.523 -17.48819,-20.44692 z m 17.30344,-35.68416 c 0.10451,-18.60406 1.89874,-38.70443 5.47949,-55.80867 22.07393,17.6873 29.56227,33.95521 29.4794,56.00233 -0.0829,22.04713 -10.34227,43.53062 -29.51491,55.7886 -3.43513,-20.15547 -5.46,-37.477 -5.44398,-55.98226 z m 29.22844,0.0708 c 0.32114,-16.37668 -3.84941,-29.91637 -19.76717,-46.26257 -2.64538,16.18272 -3.51885,30.90384 -3.80793,46.22413 -0.0339,15.69284 1.65413,31.66659 3.79659,46.30924 15.63978,-16.25478 19.45737,-29.89412 19.77851,-46.2708 z m 14.69026,21.02123 -5.52355,-0.0126 0.0253,-5.80527 5.49826,0.006 0.0123,-16.53523 9.21229,0.002 -0.006,0.24048 0,16.2925 3.006,0 -0.006,-16.52627 18.26714,-0.007 -0.0316,5.81792 -12.41837,-0.006 0,10.72139 5.50759,0.0134 -0.0134,5.78924 -5.49418,0.009 0,29.05644 12.37469,0.0516 0,5.6112 -18.13618,0 -0.0507,-34.71927 -3.00487,0 -0.0507,34.71927 -9.16351,0.0521 z m 131.41259,19.06545 -0.0677,-42.83774 8.48411,0.0524 c -0.0367,16.63927 0.0501,49.91838 0.0501,49.91838 -4.74159,-0.0418 -8.40049,-3.08285 -8.46647,-7.13302 z m 30.28727,-96.74665 7.58791,0.0537 2.44458,95.44225 -5.77003,-0.003 -4.26246,-95.49298 z m 10.63526,0.004 12.77889,0.0134 -4.55665,95.47552 -5.764,0.006 z m -261.06217,78.02829 13.927788,0 0,11.12219 -13.977389,0.0515 z m 124.74889,0 13.92779,0 0,11.12219 -13.95936,0.0451 z m -124.74885,-8.81759 13.927785,0 0,5.61119 -13.968852,0.0483 z m 124.74889,0 13.92779,0 0,5.61119 -13.96569,0.0547 z m 144.95977,35.99342 a 7.4434229,7.2823878 0 0 1 -7.44341,7.28238 7.4434229,7.2823878 0 0 1 -7.44342,-7.28238 7.4434229,7.2823878 0 0 1 7.44342,-7.28239 7.4434229,7.2823878 0 0 1 7.44341,7.28239 z" />
    <g
       transform="matrix(0.94979959,0,0,-0.94979959,273.62975,-264.57212)"
       id="g6403"
       clip-path="none"
       mask="none">
      <g
         transform="translate(-110.1,13.14)"
         id="g6407">
        <g
           transform="translate(95.7,-22.14)"
           id="g6411">
          <g
             transform="translate(100.08,-25.8)"
             id="g6415">
            <g
               transform="translate(-107.22,-67.92)"
               id="g6419">
              <g
                 transform="translate(-159.9,2.94)"
                 id="g6423">
                <g
                   transform="translate(-115.92,-11.64)"
                   id="g6427">
                  <g
                     transform="translate(115.92,11.64)"
                     id="g6431">
                    <g
                       transform="translate(-124.44,64.98)"
                       id="g6435">
                      <g
                         transform="translate(106.44,-64.98)"
                         id="g6439">
                        <g
                           transform="translate(4.68,-17.46)"
                           id="g6443">
                          <g
                             transform="translate(194.7,94.56)"
                             id="g6447">
                            <g
                               transform="translate(-29.82,-88.74)"
                               id="g6451">
                              <g
                                 transform="translate(-160.44,0)"
                                 id="g6455">
                                <g
                                   id="g6459">
                                <g
                                   transform="translate(260.82,8.7)"
                                   id="g6463">
                                <g
                                   id="g6467">
                                <g
                                   transform="translate(-69.84,82.86)"
                                   id="g6471">
                                <g
                                   transform="translate(-0.72,-2.82)"
                                   id="g6475">
                                <g
                                   transform="translate(-25.32,-94.56)"
                                   id="g6479">
                                <g
                                   transform="translate(1.5,5.82)"
                                   id="g6483">
                                <g
                                   transform="translate(13.02,104.7)"
                                   id="g6487">
                                <g
                                   transform="translate(-172.8,-96)"
                                   id="g6491">
                                <g
                                   transform="translate(169.26,93.72)"
                                   id="g6495">
                                <g
                                   transform="translate(-213,13.44)"
                                   id="g6499">
                                <g
                                   transform="translate(234.6,0)"
                                   id="g6503">
                                <g
                                   transform="translate(-117.3,8.7)"
                                   id="g6507">
                                <g
                                   transform="translate(73.56,-115.86)"
                                   id="g6511">
                                <path
                                   style="fill:#000000;stroke:#000000;stroke-width:0.40385178;stroke-linecap:round;stroke-linejoin:round;stroke-miterlimit:10;stroke-dasharray:none;stroke-opacity:1"
                                   mask="none"
                                   d="M 599.01953 -1031.3555 L 204.25391 -952.4043 L 213.54297 -918.07812 L 57.976562 -896.17578 L 57.957031 -876.51367 L 218.58984 -899.09375 L 226.26562 -870.62305 L 57.927734 -846.93164 L 57.917969 -836.98242 L 228.89062 -861.13477 L 298.35156 -601.6582 L 191.39258 -601.6582 L 194.7207 -591.76367 L 300.97852 -591.76367 L 308.85352 -562.48438 L -31.191406 -562.48438 L -108.93359 -853.05469 L -70.904297 -858.40039 L -38.189453 -882.63672 L -133.56836 -869.20898 L -128.31641 -849.625 L -377.89453 -810.65234 L -306.01172 -542.89648 L 1504.2539 -542.89648 L 1575.9355 -810.65234 L 1326.5586 -849.625 L 1331.6055 -869.20898 L 1178.457 -890.77148 L 1177.5273 -871.26758 L 1307.1758 -853.05469 L 1229.2324 -562.48438 L 889.1875 -562.48438 L 897.06055 -591.76367 L 970.2168 -591.76367 C 967.79521 -594.85274 965.73015 -598.16235 964.12305 -601.6582 L 899.68555 -601.6582 L 916.13867 -662.93945 C 907.17451 -643.27769 895.52954 -624.86687 881.30273 -608.38086 L 868.99414 -562.48438 L 329.04688 -562.48438 L 228.6875 -937.46094 L 599.01953 -1011.5664 L 969.55469 -937.46094 L 935.01953 -808.68164 C 937.23463 -794.68466 938.23754 -780.09684 938.17969 -764.70508 C 938.14893 -756.52619 937.71651 -748.36942 936.90039 -740.26953 L 969.35156 -861.13477 L 1104.6113 -842.01367 L 1104.166 -851.99023 L 971.77539 -870.62305 L 979.44727 -899.09375 L 1102.8379 -881.75977 L 1101.9551 -901.54102 L 984.49805 -918.07812 L 993.78711 -952.4043 L 599.01953 -1031.3555 z M 599.01953 -981.68164 L 412.0957 -944.27344 C 415.14448 -941.49761 418.08999 -938.72532 420.94336 -935.95703 L 599.07422 -971.61719 L 785.35938 -934.33594 C 787.96404 -937.19956 790.61579 -940.01058 793.33594 -942.79492 L 599.01953 -981.68164 z M 811.05469 -939.24805 C 810.57122 -936.00266 810.1082 -932.73936 809.65039 -929.47461 L 826.94141 -926.01367 C 827.4604 -929.28103 828.00124 -932.51953 828.55273 -935.74609 L 811.05469 -939.24805 z M 385.2793 -938.9082 L 366.66211 -935.18164 C 366.16049 -931.72837 365.66801 -928.27009 365.19531 -924.79688 L 383.51758 -928.46484 C 384.08477 -931.97142 384.67442 -935.45027 385.2793 -938.9082 z M 337.00977 -929.24805 L 265.03516 -914.84375 L 309.19922 -749.74805 L 309.19922 -787.44336 L 277.15039 -907.17188 L 327.09766 -917.16992 C 330.35783 -921.38528 333.65324 -925.37872 337.00977 -929.24805 z M 847.83203 -929.0625 C 847.44811 -926.71389 847.09166 -924.38642 846.72852 -922.05469 L 856.23242 -920.15234 C 853.53271 -923.09956 850.75118 -926.06478 847.83203 -929.0625 z M 873.92773 -926.66602 C 877.83572 -922.57399 881.5593 -918.48203 885.0625 -914.38281 L 921.0918 -907.17188 L 912.5 -875.1543 C 914.83034 -870.91958 916.97953 -866.65391 918.96289 -862.34961 L 933.00586 -914.84375 L 873.92773 -926.66602 z M 1127.7031 -897.91602 L 1128.207 -878.19531 L 1139.0625 -876.67188 L 1138.5547 -896.38867 L 1127.7031 -897.91602 z M 37.236328 -893.25586 L 24.431641 -891.45312 L 24.421875 -871.80078 L 37.236328 -873.60156 L 37.236328 -893.25586 z M 1128.9688 -848.5 L 1129.2227 -838.53516 L 1140.082 -837 L 1139.8262 -846.97266 L 1128.9688 -848.5 z M 904.75586 -846.29492 L 844.77734 -622.7793 C 845.74577 -615.50556 846.75248 -608.29874 847.79297 -601.1875 C 848.41631 -601.83535 849.00636 -602.47556 849.61914 -603.12109 L 910.30078 -829.96875 C 908.73217 -835.42609 906.89893 -840.86252 904.75586 -846.29492 z M 37.234375 -844.01953 L 24.408203 -842.21484 L 24.404297 -832.24805 L 37.234375 -834.06055 L 37.234375 -844.01953 z M 1176.123 -841.86328 L 1175.6523 -831.9707 L 1257.9043 -820.34375 L 1199.3477 -601.6582 L 1165.9004 -601.6582 A 26.374333 25.803736 0 0 1 1167.4004 -593.16406 A 26.374333 25.803736 0 0 1 1167.3301 -591.76367 L 1206.8184 -591.76367 L 1270.2227 -828.62109 L 1176.123 -841.86328 z M -29.320312 -834.6543 L -72.183594 -828.62109 L -29.253906 -668.25391 L -29.269531 -706.08398 L -59.863281 -820.34375 L -29.316406 -824.6582 L -29.320312 -834.6543 z M -123.26758 -830.64062 L -115.59766 -802.16992 L -316.51367 -770.87109 L -268.65625 -591.76367 L -59.257812 -591.76367 L -51.384766 -562.48438 L -291.06641 -562.48438 L -353.26367 -794.70117 L -123.26758 -830.64062 z M 1321.3086 -830.64062 L 1551.5059 -794.70117 L 1489.1074 -562.48438 L 1249.4219 -562.48438 L 1257.2988 -591.76367 L 1466.6973 -591.76367 L 1514.7559 -770.87109 L 1313.8398 -802.16992 L 1321.3086 -830.64062 z M -113.17383 -792.68164 L -61.882812 -601.6582 L -261.18164 -601.6582 L -304.39453 -762.79688 L -113.17383 -792.68164 z M 1311.2148 -792.68164 L 1502.4355 -762.79688 L 1459.2227 -601.6582 L 1259.9238 -601.6582 L 1311.2148 -792.68164 z M 916.375 -739.16016 L 898.26172 -671.61914 C 908.70077 -693.86734 914.02542 -715.91929 916.375 -739.16016 z M 24.294922 -601.6582 L 24.291016 -591.76367 L 37.226562 -591.76367 L 37.228516 -601.6582 L 24.294922 -601.6582 z M 57.6875 -601.6582 L 57.677734 -591.76367 L 73.294922 -591.76367 L 76.630859 -601.6582 L 57.6875 -601.6582 z M 98.046875 -601.6582 L 94.734375 -591.76367 L 125.78125 -591.76367 L 122.48438 -601.6582 L 98.046875 -601.6582 z M 144.02344 -601.6582 L 147.32227 -591.76367 L 158.71289 -591.76367 L 155.37891 -601.6582 L 144.02344 -601.6582 z M 364.73633 -601.6582 C 365.25366 -598.3649 365.79801 -595.06738 366.36523 -591.76367 L 385.74023 -591.76367 C 385.21435 -595.08372 384.70655 -598.37508 384.20508 -601.6582 L 364.73633 -601.6582 z M 403.93359 -601.6582 C 403.95422 -601.51703 403.9735 -601.37352 403.99414 -601.23242 C 404.13144 -601.37512 404.2597 -601.51562 404.39648 -601.6582 L 403.93359 -601.6582 z M 431.41211 -601.6582 C 428.23177 -598.26655 424.93546 -594.96566 421.52344 -591.76367 L 526.13867 -591.76367 L 526.13867 -601.6582 L 431.41211 -601.6582 z M 558.66211 -601.6582 L 558.64844 -591.76367 L 569.58398 -591.76367 L 569.57031 -601.6582 L 558.66211 -601.6582 z M 590.0332 -601.6582 L 590.0332 -591.76367 L 788.99414 -591.76367 C 785.98158 -595.01479 783.03395 -598.31978 780.16992 -601.6582 L 590.0332 -601.6582 z M 808.52734 -601.6582 C 809.04446 -598.36489 809.58925 -595.06737 810.15625 -591.76367 L 829.53125 -591.76367 C 829.00538 -595.0841 828.49949 -598.37469 827.99805 -601.6582 L 808.52734 -601.6582 z M 986.94727 -601.6582 C 990.29313 -597.53291 994.81406 -594.18402 999.94727 -591.76367 L 1039.6113 -591.76367 C 1044.6628 -594.17617 1049.0767 -597.51969 1052.3105 -601.6582 L 1021.7539 -601.6582 C 1021.7544 -601.47011 1021.7617 -597.87109 1021.7617 -597.87109 C 1015.8609 -597.92311 1010.4382 -599.28979 1005.8691 -601.6582 L 986.94727 -601.6582 z M 1074.6367 -601.6582 C 1073.0308 -598.13927 1070.9709 -594.83751 1068.5781 -591.76367 L 1114.7031 -591.76367 A 26.374333 25.803736 0 0 1 1114.6523 -593.16406 A 26.374333 25.803736 0 0 1 1116.1543 -601.6582 L 1074.6367 -601.6582 z "
                                   transform="matrix(0.29713871,0,0,-0.29713871,-251.55209,-175.83573)"
                                   id="path7447" />
                                </g>
                                </g>
                                </g>
                                </g>
                                </g>
                                </g>
                                </g>
                                </g>
                                </g>
                                </g>
                                </g>
                                </g>
                                </g>
                                </g>
                              </g>
                            </g>
                          </g>
                        </g>
                      </g>
                    </g>
                  </g>
                </g>
              </g>
            </g>
          </g>
        </g>
      </g>
    </g>
  </g>
</svg>
