  0
SECTION
  2
HEADER
  9
$ACADVER
  1
AC1014
  9
$HANDSEED
  5
FFFF
  9
$MEASUREMENT
 70
     1
  0
ENDSEC
  0
SECTION
  2
TABLES
  0
TABLE
  2
VPORT
  5
8
330
0
100
AcDbSymbolTable
 70
     4
  0
VPORT
  5
2E
330
8
100
AcDbSymbolTableRecord
100
AcDbViewportTableRecord
  2
*ACTIVE
 70
     0
 10
0.0
 20
0.0
 11
1.0
 21
1.0
 12
210.0
 22
148.5
 13
0.0
 23
0.0
 14
10.0
 24
10.0
 15
10.0
 25
10.0
 16
0.0
 26
0.0
 36
1.0
 17
0.0
 27
0.0
 37
0.0
 40
341.0
 41
1.24
 42
50.0
 43
0.0
 44
0.0
 50
0.0
 51
0.0
 71
     0
 72
   100
 73
     1
 74
     3
 75
     0
 76
     0
 77
     0
 78
     0
  0
ENDTAB
  0
TABLE
  2
LTYPE
  5
5
330
0
100
AcDbSymbolTable
 70
     1
  0
LTYPE
  5
14
330
5
100
AcDbSymbolTableRecord
100
AcDbLinetypeTableRecord
  2
BYBLOCK
 70
     0
  3

 72
    65
 73
     0
 40
0.0
  0
LTYPE
  5
15
330
5
100
AcDbSymbolTableRecord
100
AcDbLinetypeTableRecord
  2
BYLAYER
 70
     0
  3

 72
    65
 73
     0
 40
0.0
  0
LTYPE
  5
16
330
5
100
AcDbSymbolTableRecord
100
AcDbLinetypeTableRecord
  2
CONTINUOUS
 70
     0
  3
Solid line
 72
    65
 73
     0
 40
0.0
  0
ENDTAB
  0
TABLE
  2
LAYER
  5
2
100
AcDbSymbolTable
 70
2
  0
LAYER
  5
50
100
AcDbSymbolTableRecord
100
AcDbLayerTableRecord
  2
0
 70
0
  6
CONTINUOUS
  0
LAYER
  5
51
100
AcDbSymbolTableRecord
100
AcDbLayerTableRecord
  2
Layer_1
 70
0
  6
CONTINUOUS
  0
ENDTAB
  0
TABLE
  2
STYLE
  5
3
330
0
100
AcDbSymbolTable
 70
     1
  0
STYLE
  5
11
330
3
100
AcDbSymbolTableRecord
100
AcDbTextStyleTableRecord
  2
STANDARD
 70
     0
 40
0.0
 41
1.0
 50
0.0
 71
     0
 42
2.5
  3
txt
  4

  0
ENDTAB
  0
TABLE
  2
VIEW
  5
6
330
0
100
AcDbSymbolTable
 70
     0
  0
ENDTAB
  0
TABLE
  2
UCS
  5
7
330
0
100
AcDbSymbolTable
 70
     0
  0
ENDTAB
  0
TABLE
  2
APPID
  5
9
330
0
100
AcDbSymbolTable
 70
     2
  0
APPID
  5
12
330
9
100
AcDbSymbolTableRecord
100
AcDbRegAppTableRecord
  2
ACAD
 70
     0
  0
ENDTAB
  0
TABLE
  2
DIMSTYLE
  5
A
330
0
100
AcDbSymbolTable
 70
     1
  0
DIMSTYLE
105
27
330
A
100
AcDbSymbolTableRecord
100
AcDbDimStyleTableRecord
  2
ISO-25
 70
     0
  3

  4

  5

  6

  7

 40
1.0
 41
2.5
 42
0.625
 43
3.75
 44
1.25
 45
0.0
 46
0.0
 47
0.0
 48
0.0
140
2.5
141
2.5
142
0.0
143
0.03937007874016
144
1.0
145
0.0
146
1.0
147
0.625
 71
     0
 72
     0
 73
     0
 74
     0
 75
     0
 76
     0
 77
     1
 78
     8
170
     0
171
     3
172
     1
173
     0
174
     0
175
     0
176
     0
177
     0
178
     0
270
     2
271
     2
272
     2
273
     2
274
     3
340
11
275
     0
280
     0
281
     0
282
     0
283
     0
284
     8
285
     0
286
     0
287
     3
288
     0
  0
ENDTAB
  0
TABLE
  2
BLOCK_RECORD
  5
1
330
0
100
AcDbSymbolTable
 70
     1
  0
BLOCK_RECORD
  5
1F
330
1
100
AcDbSymbolTableRecord
100
AcDbBlockTableRecord
  2
*MODEL_SPACE
  0
BLOCK_RECORD
  5
1B
330
1
100
AcDbSymbolTableRecord
100
AcDbBlockTableRecord
  2
*PAPER_SPACE
  0
ENDTAB
  0
ENDSEC
  0
SECTION
  2
BLOCKS
  0
BLOCK
  5
20
330
1F
100
AcDbEntity
  8
0
100
AcDbBlockBegin
  2
*MODEL_SPACE
 70
     0
 10
0.0
 20
0.0
 30
0.0
  3
*MODEL_SPACE
  1

  0
ENDBLK
  5
21
330
1F
100
AcDbEntity
  8
0
100
AcDbBlockEnd
  0
BLOCK
  5
1C
330
1B
100
AcDbEntity
 67
     1
  8
0
100
AcDbBlockBegin
  2
*PAPER_SPACE
  1

  0
ENDBLK
  5
1D
330
1B
100
AcDbEntity
 67
     1
  8
0
100
AcDbBlockEnd
  0
ENDSEC
  0
SECTION
  2
ENTITIES
  0
SPLINE
  5
100
100
AcDbEntity
  8
Layer_1
 62
7
100
AcDbSpline
 70
8
 71
3
 72
8
 73
4
 74
0
 40
0
 40
0
 40
0
 40
0
 40
1
 40
1
 40
1
 40
1
 10
642.765288
 20
2131.186535
 30
0.0
 10
658.328457
 20
2156.099584
 30
0.0
 10
672.695121
 20
2171.008460
 30
0.0
 10
692.323994
 20
2188.975918
 30
0.0
  0
SPLINE
  5
101
100
AcDbEntity
  8
Layer_1
 62
7
100
AcDbSpline
 70
8
 71
3
 72
8
 73
4
 74
0
 40
0
 40
0
 40
0
 40
0
 40
1
 40
1
 40
1
 40
1
 10
692.323994
 20
2188.975918
 30
0.0
 10
683.365890
 20
2136.959887
 30
0.0
 10
678.661682
 20
2079.860088
 30
0.0
 10
678.446617
 20
2030.184765
 30
0.0
  0
SPLINE
  5
102
100
AcDbEntity
  8
Layer_1
 62
7
100
AcDbSpline
 70
8
 71
3
 72
8
 73
4
 74
0
 40
0
 40
0
 40
0
 40
0
 40
1
 40
1
 40
1
 40
1
 10
678.446617
 20
2030.184765
 30
0.0
 10
679.186375
 20
1968.981250
 30
0.0
 10
681.638882
 20
1922.452583
 30
0.0
 10
692.338139
 20
1871.356961
 30
0.0
  0
SPLINE
  5
103
100
AcDbEntity
  8
Layer_1
 62
7
100
AcDbSpline
 70
8
 71
3
 72
8
 73
4
 74
0
 40
0
 40
0
 40
0
 40
0
 40
1
 40
1
 40
1
 40
1
 10
692.338139
 20
1871.356961
 30
0.0
 10
673.263553
 20
1887.988479
 30
0.0
 10
654.314230
 20
1909.689874
 30
0.0
 10
642.765288
 20
1929.316791
 30
0.0
  0
LWPOLYLINE
  5
104
100
AcDbEntity
  8
Layer_1
 62
7
100
AcDbPolyline
 90
2
 70
0
 10
642.765288
 20
1929.316847
 30
0.0
 10
642.765288
 20
2131.186535
 30
0.0
  0
SPLINE
  5
105
100
AcDbEntity
  8
Layer_1
 62
7
100
AcDbSpline
 70
8
 71
3
 72
8
 73
4
 74
0
 40
0
 40
0
 40
0
 40
0
 40
1
 40
1
 40
1
 40
1
 10
691.814409
 20
2030.468797
 30
0.0
 10
692.110658
 20
2083.204687
 30
0.0
 10
697.196665
 20
2140.182113
 30
0.0
 10
707.346822
 20
2188.666602
 30
0.0
  0
SPLINE
  5
106
100
AcDbEntity
  8
Layer_1
 62
7
100
AcDbSpline
 70
8
 71
3
 72
8
 73
4
 74
0
 40
0
 40
0
 40
0
 40
0
 40
1
 40
1
 40
1
 40
1
 10
707.346822
 20
2188.666602
 30
0.0
 10
769.918649
 20
2138.529373
 30
0.0
 10
791.145439
 20
2092.415613
 30
0.0
 10
790.910561
 20
2029.919811
 30
0.0
  0
SPLINE
  5
107
100
AcDbEntity
  8
Layer_1
 62
7
100
AcDbSpline
 70
8
 71
3
 72
8
 73
4
 74
0
 40
0
 40
0
 40
0
 40
0
 40
1
 40
1
 40
1
 40
1
 10
790.910561
 20
2029.919811
 30
0.0
 10
790.675569
 20
1967.424038
 30
0.0
 10
761.593833
 20
1906.525956
 30
0.0
 10
707.246192
 20
1871.778926
 30
0.0
  0
SPLINE
  5
108
100
AcDbEntity
  8
Layer_1
 62
7
100
AcDbSpline
 70
8
 71
3
 72
8
 73
4
 74
0
 40
0
 40
0
 40
0
 40
0
 40
1
 40
1
 40
1
 40
1
 10
707.246192
 20
1871.778926
 30
0.0
 10
697.508787
 20
1928.912542
 30
0.0
 10
691.768998
 20
1978.012942
 30
0.0
 10
691.814409
 20
2030.468797
 30
0.0
  0
LWPOLYLINE
  5
109
100
AcDbEntity
  8
Layer_1
 62
7
100
AcDbPolyline
 90
1
 70
1
 10
642.765288
 20
1929.316791
 30
0.0
  0
SPLINE
  5
10a
100
AcDbEntity
  8
Layer_1
 62
7
100
AcDbSpline
 70
8
 71
3
 72
8
 73
4
 74
0
 40
0
 40
0
 40
0
 40
0
 40
1
 40
1
 40
1
 40
1
 10
774.666737
 20
2030.268104
 30
0.0
 10
775.577027
 20
2076.690189
 30
0.0
 10
763.755024
 20
2115.070384
 30
0.0
 10
718.633786
 20
2161.406069
 30
0.0
  0
SPLINE
  5
10b
100
AcDbEntity
  8
Layer_1
 62
7
100
AcDbSpline
 70
8
 71
3
 72
8
 73
4
 74
0
 40
0
 40
0
 40
0
 40
0
 40
1
 40
1
 40
1
 40
1
 10
718.633786
 20
2161.406069
 30
0.0
 10
711.135071
 20
2115.533792
 30
0.0
 10
708.659121
 20
2073.804661
 30
0.0
 10
707.839625
 20
2030.377039
 30
0.0
  0
SPLINE
  5
10c
100
AcDbEntity
  8
Layer_1
 62
7
100
AcDbSpline
 70
8
 71
3
 72
8
 73
4
 74
0
 40
0
 40
0
 40
0
 40
0
 40
1
 40
1
 40
1
 40
1
 10
707.839625
 20
2030.377039
 30
0.0
 10
707.743531
 20
1985.893427
 30
0.0
 10
712.528526
 20
1940.613506
 30
0.0
 10
718.601641
 20
1899.106753
 30
0.0
  0
SPLINE
  5
10d
100
AcDbEntity
  8
Layer_1
 62
7
100
AcDbSpline
 70
8
 71
3
 72
8
 73
4
 74
0
 40
0
 40
0
 40
0
 40
0
 40
1
 40
1
 40
1
 40
1
 10
718.601641
 20
1899.106753
 30
0.0
 10
762.934847
 20
1945.183295
 30
0.0
 10
773.756391
 20
1983.846019
 30
0.0
 10
774.666737
 20
2030.268104
 30
0.0
  0
LWPOLYLINE
  5
10e
100
AcDbEntity
  8
Layer_1
 62
7
100
AcDbPolyline
 90
1
 70
1
 10
691.814409
 20
2030.468797
 30
0.0
  0
LWPOLYLINE
  5
10f
100
AcDbEntity
  8
Layer_1
 62
7
100
AcDbPolyline
 90
1
 70
1
 10
774.666737
 20
2030.268104
 30
0.0
  0
SPLINE
  5
110
100
AcDbEntity
  8
Layer_1
 62
7
100
AcDbSpline
 70
8
 71
3
 72
8
 73
4
 74
0
 40
0
 40
0
 40
0
 40
0
 40
1
 40
1
 40
1
 40
1
 10
825.116882
 20
1912.387720
 30
0.0
 10
825.332598
 20
1897.655159
 30
0.0
 10
840.936954
 20
1888.088343
 30
0.0
 10
856.042328
 20
1888.020284
 30
0.0
  0
SPLINE
  5
111
100
AcDbEntity
  8
Layer_1
 62
7
100
AcDbSpline
 70
8
 71
3
 72
8
 73
4
 74
0
 40
0
 40
0
 40
0
 40
0
 40
1
 40
1
 40
1
 40
1
 10
856.042328
 20
1888.020284
 30
0.0
 10
871.147757
 20
1887.952252
 30
0.0
 10
886.546318
 20
1897.259046
 30
0.0
 10
886.729663
 20
1912.130306
 30
0.0
  0
LWPOLYLINE
  5
112
100
AcDbEntity
  8
Layer_1
 62
7
100
AcDbPolyline
 90
4
 70
0
 10
808.653203
 20
1912.697461
 30
0.0
 10
808.653203
 20
2038.115169
 30
0.0
 10
825.080882
 20
2038.098161
 30
0.0
 10
825.116882
 20
1912.387720
 30
0.0
  0
SPLINE
  5
113
100
AcDbEntity
  8
Layer_1
 62
7
100
AcDbSpline
 70
8
 71
3
 72
8
 73
4
 74
0
 40
0
 40
0
 40
0
 40
0
 40
1
 40
1
 40
1
 40
1
 10
903.165420
 20
1912.415471
 30
0.0
 10
902.339178
 20
1887.994885
 30
0.0
 10
874.822535
 20
1871.371474
 30
0.0
 10
855.507657
 20
1871.412208
 30
0.0
  0
SPLINE
  5
114
100
AcDbEntity
  8
Layer_1
 62
7
100
AcDbSpline
 70
8
 71
3
 72
8
 73
4
 74
0
 40
0
 40
0
 40
0
 40
0
 40
1
 40
1
 40
1
 40
1
 10
855.507657
 20
1871.412208
 30
0.0
 10
836.192778
 20
1871.453027
 30
0.0
 10
808.729569
 20
1889.172085
 30
0.0
 10
808.654620
 20
1912.699502
 30
0.0
  0
LWPOLYLINE
  5
115
100
AcDbEntity
  8
Layer_1
 62
7
100
AcDbPolyline
 90
4
 70
0
 10
886.729663
 20
1912.130306
 30
0.0
 10
886.706986
 20
2038.107118
 30
0.0
 10
903.243940
 20
2038.092945
 30
0.0
 10
903.165420
 20
1912.415471
 30
0.0
  0
LWPOLYLINE
  5
116
100
AcDbEntity
  8
Layer_1
 62
7
100
AcDbPolyline
 90
2
 70
0
 10
808.654620
 20
1912.699502
 30
0.0
 10
808.653203
 20
1912.697461
 30
0.0
  0
LWPOLYLINE
  5
117
100
AcDbEntity
  8
Layer_1
 62
7
100
AcDbPolyline
 90
7
 70
1
 10
16.902323
 20
2109.317017
 30
0.0
 10
-11.857907
 20
2088.038353
 30
0.0
 10
-21.430477
 20
2101.116728
 30
0.0
 10
59.926575
 20
2161.388580
 30
0.0
 10
59.791079
 20
1872.300898
 30
0.0
 10
38.551504
 20
1872.228047
 30
0.0
 10
16.997567
 20
1872.153496
 30
0.0
  0
LWPOLYLINE
  5
118
100
AcDbEntity
  8
Layer_1
 62
7
100
AcDbPolyline
 90
6
 70
1
 10
70.149073
 20
1872.140967
 30
0.0
 10
70.157577
 20
2168.931317
 30
0.0
 10
102.142896
 20
2192.643099
 30
0.0
 10
112.063391
 20
2179.770066
 30
0.0
 10
86.773391
 20
2161.032378
 30
0.0
 10
86.489359
 20
1872.300841
 30
0.0
  0
LWPOLYLINE
  5
119
100
AcDbEntity
  8
Layer_1
 62
7
100
AcDbPolyline
 90
9
 70
1
 10
92.456402
 20
1872.152306
 30
0.0
 10
128.776462
 20
1979.859770
 30
0.0
 10
146.776283
 20
1925.909461
 30
0.0
 10
164.694404
 20
1872.159704
 30
0.0
 10
147.462131
 20
1872.157323
 30
0.0
 10
137.568549
 20
1901.838614
 30
0.0
 10
119.644481
 20
1901.988567
 30
0.0
 10
109.653432
 20
1872.151512
 30
0.0
 10
101.099690
 20
1872.157181
 30
0.0
  0
LWPOLYLINE
  5
11a
100
AcDbEntity
  8
Layer_1
 62
7
100
AcDbPolyline
 90
4
 70
1
 10
133.258051
 20
1992.695726
 30
0.0
 10
147.574434
 20
2035.957748
 30
0.0
 10
202.674461
 20
1872.156558
 30
0.0
 10
173.877837
 20
1872.157380
 30
0.0
  0
SPLINE
  5
11b
100
AcDbEntity
  8
Layer_1
 62
7
100
AcDbSpline
 70
8
 71
3
 72
8
 73
4
 74
0
 40
0
 40
0
 40
0
 40
0
 40
1
 40
1
 40
1
 40
1
 10
287.726230
 20
2131.222564
 30
0.0
 10
303.289370
 20
2156.135613
 30
0.0
 10
317.656063
 20
2171.044488
 30
0.0
 10
337.284907
 20
2189.011947
 30
0.0
  0
SPLINE
  5
11c
100
AcDbEntity
  8
Layer_1
 62
7
100
AcDbSpline
 70
8
 71
3
 72
8
 73
4
 74
0
 40
0
 40
0
 40
0
 40
0
 40
1
 40
1
 40
1
 40
1
 10
337.284907
 20
2189.011947
 30
0.0
 10
328.326832
 20
2136.995915
 30
0.0
 10
323.622595
 20
2079.896145
 30
0.0
 10
323.407531
 20
2030.220794
 30
0.0
  0
SPLINE
  5
11d
100
AcDbEntity
  8
Layer_1
 62
7
100
AcDbSpline
 70
8
 71
3
 72
8
 73
4
 74
0
 40
0
 40
0
 40
0
 40
0
 40
1
 40
1
 40
1
 40
1
 10
323.407531
 20
2030.220794
 30
0.0
 10
324.147317
 20
1969.017279
 30
0.0
 10
326.599795
 20
1922.488611
 30
0.0
 10
337.299052
 20
1871.393046
 30
0.0
  0
SPLINE
  5
11e
100
AcDbEntity
  8
Layer_1
 62
7
100
AcDbSpline
 70
8
 71
3
 72
8
 73
4
 74
0
 40
0
 40
0
 40
0
 40
0
 40
1
 40
1
 40
1
 40
1
 10
337.299052
 20
1871.393046
 30
0.0
 10
318.224494
 20
1888.024535
 30
0.0
 10
299.275143
 20
1909.725959
 30
0.0
 10
287.726230
 20
1929.352819
 30
0.0
  0
LWPOLYLINE
  5
11f
100
AcDbEntity
  8
Layer_1
 62
7
100
AcDbPolyline
 90
2
 70
0
 10
287.726230
 20
1929.352876
 30
0.0
 10
287.726230
 20
2131.222564
 30
0.0
  0
SPLINE
  5
120
100
AcDbEntity
  8
Layer_1
 62
7
100
AcDbSpline
 70
8
 71
3
 72
8
 73
4
 74
0
 40
0
 40
0
 40
0
 40
0
 40
1
 40
1
 40
1
 40
1
 10
336.775351
 20
2030.504825
 30
0.0
 10
337.071600
 20
2083.240743
 30
0.0
 10
342.157606
 20
2140.218170
 30
0.0
 10
352.307764
 20
2188.702630
 30
0.0
  0
SPLINE
  5
121
100
AcDbEntity
  8
Layer_1
 62
7
100
AcDbSpline
 70
8
 71
3
 72
8
 73
4
 74
0
 40
0
 40
0
 40
0
 40
0
 40
1
 40
1
 40
1
 40
1
 10
352.307764
 20
2188.702630
 30
0.0
 10
414.879534
 20
2138.565402
 30
0.0
 10
436.106324
 20
2092.451641
 30
0.0
 10
435.871417
 20
2029.955868
 30
0.0
  0
SPLINE
  5
122
100
AcDbEntity
  8
Layer_1
 62
7
100
AcDbSpline
 70
8
 71
3
 72
8
 73
4
 74
0
 40
0
 40
0
 40
0
 40
0
 40
1
 40
1
 40
1
 40
1
 10
435.871417
 20
2029.955868
 30
0.0
 10
435.636425
 20
1967.460066
 30
0.0
 10
406.554746
 20
1906.561984
 30
0.0
 10
352.207106
 20
1871.814954
 30
0.0
  0
SPLINE
  5
123
100
AcDbEntity
  8
Layer_1
 62
7
100
AcDbSpline
 70
8
 71
3
 72
8
 73
4
 74
0
 40
0
 40
0
 40
0
 40
0
 40
1
 40
1
 40
1
 40
1
 10
352.207106
 20
1871.814954
 30
0.0
 10
342.469729
 20
1928.948570
 30
0.0
 10
336.729940
 20
1978.048970
 30
0.0
 10
336.775351
 20
2030.504825
 30
0.0
  0
LWPOLYLINE
  5
124
100
AcDbEntity
  8
Layer_1
 62
7
100
AcDbPolyline
 90
1
 70
1
 10
287.726230
 20
1929.352819
 30
0.0
  0
SPLINE
  5
125
100
AcDbEntity
  8
Layer_1
 62
7
100
AcDbSpline
 70
8
 71
3
 72
8
 73
4
 74
0
 40
0
 40
0
 40
0
 40
0
 40
1
 40
1
 40
1
 40
1
 10
419.627622
 20
2030.304132
 30
0.0
 10
420.537940
 20
2076.726217
 30
0.0
 10
408.715909
 20
2115.106441
 30
0.0
 10
363.594699
 20
2161.442126
 30
0.0
  0
SPLINE
  5
126
100
AcDbEntity
  8
Layer_1
 62
7
100
AcDbSpline
 70
8
 71
3
 72
8
 73
4
 74
0
 40
0
 40
0
 40
0
 40
0
 40
1
 40
1
 40
1
 40
1
 10
363.594699
 20
2161.442126
 30
0.0
 10
356.095984
 20
2115.569849
 30
0.0
 10
353.620006
 20
2073.840690
 30
0.0
 10
352.800567
 20
2030.413096
 30
0.0
  0
SPLINE
  5
127
100
AcDbEntity
  8
Layer_1
 62
7
100
AcDbSpline
 70
8
 71
3
 72
8
 73
4
 74
0
 40
0
 40
0
 40
0
 40
0
 40
1
 40
1
 40
1
 40
1
 10
352.800567
 20
2030.413096
 30
0.0
 10
352.704472
 20
1985.929455
 30
0.0
 10
357.489439
 20
1940.649534
 30
0.0
 10
363.562554
 20
1899.142809
 30
0.0
  0
SPLINE
  5
128
100
AcDbEntity
  8
Layer_1
 62
7
100
AcDbSpline
 70
8
 71
3
 72
8
 73
4
 74
0
 40
0
 40
0
 40
0
 40
0
 40
1
 40
1
 40
1
 40
1
 10
363.562554
 20
1899.142809
 30
0.0
 10
407.895789
 20
1945.219351
 30
0.0
 10
418.717304
 20
1983.882047
 30
0.0
 10
419.627622
 20
2030.304132
 30
0.0
  0
LWPOLYLINE
  5
129
100
AcDbEntity
  8
Layer_1
 62
7
100
AcDbPolyline
 90
1
 70
1
 10
336.775351
 20
2030.504825
 30
0.0
  0
LWPOLYLINE
  5
12a
100
AcDbEntity
  8
Layer_1
 62
7
100
AcDbPolyline
 90
1
 70
1
 10
419.627622
 20
2030.304132
 30
0.0
  0
LWPOLYLINE
  5
12b
100
AcDbEntity
  8
Layer_1
 62
7
100
AcDbPolyline
 90
25
 70
1
 10
461.269304
 20
1970.716394
 30
0.0
 10
445.611997
 20
1970.752110
 30
0.0
 10
445.683713
 20
1987.207994
 30
0.0
 10
461.269332
 20
1987.190986
 30
0.0
 10
461.304198
 20
2034.062504
 30
0.0
 10
487.417776
 20
2034.056835
 30
0.0
 10
487.400769
 20
2033.375159
 30
0.0
 10
487.400769
 20
1987.191695
 30
0.0
 10
495.921713
 20
1987.191695
 30
0.0
 10
495.904706
 20
2034.037814
 30
0.0
 10
547.685575
 20
2034.057657
 30
0.0
 10
547.596000
 20
2017.565915
 30
0.0
 10
512.394321
 20
2017.582923
 30
0.0
 10
512.394321
 20
1987.191581
 30
0.0
 10
528.006387
 20
1987.153597
 30
0.0
 10
527.968403
 20
1970.743153
 30
0.0
 10
512.394350
 20
1970.717641
 30
0.0
 10
512.394350
 20
1888.352929
 30
0.0
 10
547.472211
 20
1888.206661
 30
0.0
 10
547.472211
 20
1872.300898
 30
0.0
 10
496.062567
 20
1872.300898
 30
0.0
 10
495.918850
 20
1970.717726
 30
0.0
 10
487.401109
 20
1970.717726
 30
0.0
 10
487.257392
 20
1872.300898
 30
0.0
 10
461.282088
 20
1872.153213
 30
0.0
  0
SPLINE
  5
12c
100
AcDbEntity
  8
Layer_1
 62
7
100
AcDbSpline
 70
8
 71
3
 72
8
 73
4
 74
0
 40
0
 40
0
 40
0
 40
0
 40
1
 40
1
 40
1
 40
1
 10
857.634973
 20
2037.953877
 30
0.0
 10
857.530942
 20
1990.787443
 30
0.0
 10
857.776989
 20
1896.452958
 30
0.0
 10
857.776989
 20
1896.452958
 30
0.0
  0
SPLINE
  5
12d
100
AcDbEntity
  8
Layer_1
 62
7
100
AcDbSpline
 70
8
 71
3
 72
8
 73
4
 74
0
 40
0
 40
0
 40
0
 40
0
 40
1
 40
1
 40
1
 40
1
 10
857.776989
 20
1896.452958
 30
0.0
 10
844.336261
 20
1896.571446
 30
0.0
 10
833.964576
 20
1905.191745
 30
0.0
 10
833.777546
 20
1916.672542
 30
0.0
  0
LWPOLYLINE
  5
12e
100
AcDbEntity
  8
Layer_1
 62
7
100
AcDbPolyline
 90
3
 70
0
 10
833.777433
 20
1916.672598
 30
0.0
 10
833.585528
 20
2038.102413
 30
0.0
 10
857.634973
 20
2037.953877
 30
0.0
  0
LWPOLYLINE
  5
12f
100
AcDbEntity
  8
Layer_1
 62
7
100
AcDbPolyline
 90
2
 70
0
 10
833.777546
 20
1916.672542
 30
0.0
 10
833.777433
 20
1916.672598
 30
0.0
  0
LWPOLYLINE
  5
130
100
AcDbEntity
  8
Layer_1
 62
7
100
AcDbPolyline
 90
5
 70
1
 10
919.631112
 20
2190.915071
 30
0.0
 10
941.140148
 20
2190.762850
 30
0.0
 10
948.069666
 20
1920.217890
 30
0.0
 10
931.713676
 20
1920.226394
 30
0.0
 10
919.631112
 20
2190.915156
 30
0.0
  0
LWPOLYLINE
  5
131
100
AcDbEntity
  8
Layer_1
 62
7
100
AcDbPolyline
 90
4
 70
1
 10
949.778306
 20
2190.903732
 30
0.0
 10
986.001931
 20
2190.865748
 30
0.0
 10
973.085443
 20
1920.226479
 30
0.0
 10
956.746545
 20
1920.209471
 30
0.0
  0
LWPOLYLINE
  5
132
100
AcDbEntity
  8
Layer_1
 62
7
100
AcDbPolyline
 90
4
 70
1
 10
209.759556
 20
1969.721178
 30
0.0
 10
249.239900
 20
1969.721178
 30
0.0
 10
249.239900
 20
1938.193710
 30
0.0
 10
209.618955
 20
1938.047726
 30
0.0
  0
LWPOLYLINE
  5
133
100
AcDbEntity
  8
Layer_1
 62
7
100
AcDbPolyline
 90
4
 70
1
 10
563.378457
 20
1969.721178
 30
0.0
 10
602.858806
 20
1969.721178
 30
0.0
 10
602.858806
 20
1938.193710
 30
0.0
 10
563.288967
 20
1938.065868
 30
0.0
  0
LWPOLYLINE
  5
134
100
AcDbEntity
  8
Layer_1
 62
7
100
AcDbPolyline
 90
4
 70
1
 10
209.759669
 20
1994.715921
 30
0.0
 10
249.240005
 20
1994.715921
 30
0.0
 10
249.240005
 20
1978.810186
 30
0.0
 10
209.643259
 20
1978.673272
 30
0.0
  0
SPLINE
  5
135
100
AcDbEntity
  8
Layer_1
 62
7
100
AcDbSpline
 70
8
 71
3
 72
8
 73
4
 74
0
 40
0
 40
0
 40
0
 40
0
 40
1
 40
1
 40
1
 40
1
 10
974.288154
 20
1892.687329
 30
0.0
 10
974.288142
 20
1881.286544
 30
0.0
 10
964.841615
 20
1872.044382
 30
0.0
 10
953.188724
 20
1872.044362
 30
0.0
  0
SPLINE
  5
136
100
AcDbEntity
  8
Layer_1
 62
7
100
AcDbSpline
 70
8
 71
3
 72
8
 73
4
 74
0
 40
0
 40
0
 40
0
 40
0
 40
1
 40
1
 40
1
 40
1
 10
953.188724
 20
1872.044362
 30
0.0
 10
941.535823
 20
1872.044367
 30
0.0
 10
932.089279
 20
1881.286533
 30
0.0
 10
932.089266
 20
1892.687329
 30
0.0
  0
SPLINE
  5
137
100
AcDbEntity
  8
Layer_1
 62
7
100
AcDbSpline
 70
8
 71
3
 72
8
 73
4
 74
0
 40
0
 40
0
 40
0
 40
0
 40
1
 40
1
 40
1
 40
1
 10
932.089266
 20
1892.687329
 30
0.0
 10
932.089263
 20
1904.088136
 30
0.0
 10
941.535812
 20
1913.330320
 30
0.0
 10
953.188724
 20
1913.330324
 30
0.0
  0
SPLINE
  5
138
100
AcDbEntity
  8
Layer_1
 62
7
100
AcDbSpline
 70
8
 71
3
 72
8
 73
4
 74
0
 40
0
 40
0
 40
0
 40
0
 40
1
 40
1
 40
1
 40
1
 10
953.188724
 20
1913.330324
 30
0.0
 10
964.841626
 20
1913.330305
 30
0.0
 10
974.288158
 20
1904.088126
 30
0.0
 10
974.288154
 20
1892.687329
 30
0.0
  0
LWPOLYLINE
  5
139
100
AcDbEntity
  8
Layer_1
 62
7
100
AcDbPolyline
 90
4
 70
1
 10
563.378570
 20
1994.715921
 30
0.0
 10
602.858920
 20
1994.715921
 30
0.0
 10
602.858920
 20
1978.810186
 30
0.0
 10
563.271137
 20
1978.655131
 30
0.0
  0
LWPOLYLINE
  5
13a
100
AcDbEntity
  8
Layer_1
 62
7
100
AcDbPolyline
 90
1
 70
1
 10
974.288154
 20
1892.687329
 30
0.0
  0
SPLINE
  5
13b
100
AcDbEntity
  8
Layer_1
 62
7
100
AcDbSpline
 70
8
 71
3
 72
8
 73
4
 74
0
 40
0
 40
0
 40
0
 40
0
 40
1
 40
1
 40
1
 40
1
 10
776.173450
 20
1315.300710
 30
0.0
 10
774.236178
 20
1317.771966
 30
0.0
 10
772.584130
 20
1320.419654
 30
0.0
 10
771.298450
 20
1323.216334
 30
0.0
  0
LWPOLYLINE
  5
13c
100
AcDbEntity
  8
Layer_1
 62
7
100
AcDbPolyline
 90
34
 70
0
 10
479.215632
 20
1666.974177
 30
0.0
 10
163.403133
 20
1603.813216
 30
0.0
 10
170.834381
 20
1576.352272
 30
0.0
 10
46.381253
 20
1558.830400
 30
0.0
 10
46.365628
 20
1543.100712
 30
0.0
 10
174.871877
 20
1561.164776
 30
0.0
 10
181.012501
 20
1538.388216
 30
0.0
 10
46.342191
 20
1519.435088
 30
0.0
 10
46.334379
 20
1511.475711
 30
0.0
 10
183.112501
 20
1530.797592
 30
0.0
 10
238.681253
 20
1323.216334
 30
0.0
 10
153.114068
 20
1323.216334
 30
0.0
 10
155.776564
 20
1315.300710
 30
0.0
 10
240.782821
 20
1315.300710
 30
0.0
 10
247.082821
 20
1291.877277
 30
0.0
 10
-24.953122
 20
1291.877277
 30
0.0
 10
-87.146870
 20
1524.333528
 30
0.0
 10
-56.723435
 20
1528.610088
 30
0.0
 10
-30.551560
 20
1547.999152
 30
0.0
 10
-106.854686
 20
1537.256960
 30
0.0
 10
-102.653126
 20
1521.589776
 30
0.0
 10
-302.315624
 20
1490.411647
 30
0.0
 10
-244.809375
 20
1276.206957
 30
0.0
 10
1203.403135
 20
1276.206957
 30
0.0
 10
1260.748415
 20
1490.411647
 30
0.0
 10
1061.246893
 20
1521.589776
 30
0.0
 10
1065.284413
 20
1537.256960
 30
0.0
 10
942.765612
 20
1554.506960
 30
0.0
 10
942.021852
 20
1538.903840
 30
0.0
 10
1045.740653
 20
1524.333528
 30
0.0
 10
983.385932
 20
1291.877277
 30
0.0
 10
711.350010
 20
1291.877277
 30
0.0
 10
717.648450
 20
1315.300710
 30
0.0
 10
776.173450
 20
1315.300710
 30
0.0
  0
SPLINE
  5
13d
100
AcDbEntity
  8
Layer_1
 62
7
100
AcDbSpline
 70
8
 71
3
 72
8
 73
4
 74
0
 40
0
 40
0
 40
0
 40
0
 40
1
 40
1
 40
1
 40
1
 10
732.910946
 20
1372.241334
 30
0.0
 10
725.739618
 20
1356.511926
 30
0.0
 10
716.423642
 20
1341.783270
 30
0.0
 10
705.042194
 20
1328.594462
 30
0.0
  0
LWPOLYLINE
  5
13e
100
AcDbEntity
  8
Layer_1
 62
7
100
AcDbPolyline
 90
3
 70
0
 10
771.298450
 20
1323.216334
 30
0.0
 10
719.748450
 20
1323.216334
 30
0.0
 10
732.910946
 20
1372.241334
 30
0.0
  0
SPLINE
  5
13f
100
AcDbEntity
  8
Layer_1
 62
7
100
AcDbSpline
 70
8
 71
3
 72
8
 73
4
 74
0
 40
0
 40
0
 40
0
 40
0
 40
1
 40
1
 40
1
 40
1
 10
748.015634
 20
1488.835087
 30
0.0
 10
749.787714
 20
1477.637503
 30
0.0
 10
750.590042
 20
1465.967247
 30
0.0
 10
750.543762
 20
1453.653839
 30
0.0
  0
SPLINE
  5
140
100
AcDbEntity
  8
Layer_1
 62
7
100
AcDbSpline
 70
8
 71
3
 72
8
 73
4
 74
0
 40
0
 40
0
 40
0
 40
0
 40
1
 40
1
 40
1
 40
1
 10
750.543762
 20
1453.653839
 30
0.0
 10
750.519154
 20
1447.110727
 30
0.0
 10
750.173218
 20
1440.585311
 30
0.0
 10
749.520322
 20
1434.105399
 30
0.0
  0
LWPOLYLINE
  5
141
100
AcDbEntity
  8
Layer_1
 62
7
100
AcDbPolyline
 90
7
 70
0
 10
705.042194
 20
1328.594462
 30
0.0
 10
695.195322
 20
1291.877277
 30
0.0
 10
263.237509
 20
1291.877277
 30
0.0
 10
182.950005
 20
1591.858528
 30
0.0
 10
479.215632
 20
1651.142897
 30
0.0
 10
775.643762
 20
1591.858528
 30
0.0
 10
748.015634
 20
1488.835087
 30
0.0
  0
LWPOLYLINE
  5
142
100
AcDbEntity
  8
Layer_1
 62
7
100
AcDbPolyline
 90
12
 70
0
 10
749.520322
 20
1434.105399
 30
0.0
 10
775.481258
 20
1530.797592
 30
0.0
 10
883.689051
 20
1515.500712
 30
0.0
 10
883.332811
 20
1523.481960
 30
0.0
 10
777.420322
 20
1538.388216
 30
0.0
 10
783.557826
 20
1561.164776
 30
0.0
 10
882.270331
 20
1547.297592
 30
0.0
 10
881.564091
 20
1563.122592
 30
0.0
 10
787.598451
 20
1576.352272
 30
0.0
 10
795.029699
 20
1603.813216
 30
0.0
 10
479.215632
 20
1666.974177
 30
0.0
 10
479.215632
 20
1666.974177
 30
0.0
  0
SPLINE
  5
143
100
AcDbEntity
  8
Layer_1
 62
7
100
AcDbSpline
 70
8
 71
3
 72
8
 73
4
 74
0
 40
0
 40
0
 40
0
 40
0
 40
1
 40
1
 40
1
 40
1
 10
329.676566
 20
1597.308528
 30
0.0
 10
332.115590
 20
1595.087864
 30
0.0
 10
334.471998
 20
1592.870032
 30
0.0
 10
336.754694
 20
1590.655400
 30
0.0
  0
LWPOLYLINE
  5
144
100
AcDbEntity
  8
Layer_1
 62
7
100
AcDbPolyline
 90
2
 70
0
 10
479.215632
 20
1627.235089
 30
0.0
 10
329.676566
 20
1597.308528
 30
0.0
  0
SPLINE
  5
145
100
AcDbEntity
  8
Layer_1
 62
7
100
AcDbSpline
 70
8
 71
3
 72
8
 73
4
 74
0
 40
0
 40
0
 40
0
 40
0
 40
1
 40
1
 40
1
 40
1
 10
628.287513
 20
1589.358528
 30
0.0
 10
630.371241
 20
1591.649424
 30
0.0
 10
632.492641
 20
1593.898240
 30
0.0
 10
634.668761
 20
1596.125712
 30
0.0
  0
LWPOLYLINE
  5
146
100
AcDbEntity
  8
Layer_1
 62
7
100
AcDbPolyline
 90
3
 70
0
 10
336.754694
 20
1590.655400
 30
0.0
 10
479.259384
 20
1619.183529
 30
0.0
 10
628.287513
 20
1589.358528
 30
0.0
  0
SPLINE
  5
147
100
AcDbEntity
  8
Layer_1
 62
7
100
AcDbSpline
 70
8
 71
3
 72
8
 73
4
 74
0
 40
0
 40
0
 40
0
 40
0
 40
1
 40
1
 40
1
 40
1
 10
648.843761
 20
1593.288216
 30
0.0
 10
648.456985
 20
1590.691904
 30
0.0
 10
648.086569
 20
1588.081264
 30
0.0
 10
647.720321
 20
1585.469464
 30
0.0
  0
LWPOLYLINE
  5
148
100
AcDbEntity
  8
Layer_1
 62
7
100
AcDbPolyline
 90
3
 70
0
 10
634.668761
 20
1596.125712
 30
0.0
 10
479.215632
 20
1627.235089
 30
0.0
 10
479.215632
 20
1627.235089
 30
0.0
  0
SPLINE
  5
149
100
AcDbEntity
  8
Layer_1
 62
7
100
AcDbSpline
 70
8
 71
3
 72
8
 73
4
 74
0
 40
0
 40
0
 40
0
 40
0
 40
1
 40
1
 40
1
 40
1
 10
661.553137
 20
1582.700712
 30
0.0
 10
661.968329
 20
1585.314600
 30
0.0
 10
662.401001
 20
1587.905400
 30
0.0
 10
662.842193
 20
1590.486648
 30
0.0
  0
LWPOLYLINE
  5
14a
100
AcDbEntity
  8
Layer_1
 62
7
100
AcDbPolyline
 90
2
 70
0
 10
647.720321
 20
1585.469464
 30
0.0
 10
661.553137
 20
1582.700712
 30
0.0
  0
LWPOLYLINE
  5
14b
100
AcDbEntity
  8
Layer_1
 62
7
100
AcDbPolyline
 90
3
 70
0
 10
662.842193
 20
1590.486648
 30
0.0
 10
648.843761
 20
1593.288216
 30
0.0
 10
648.843761
 20
1593.288216
 30
0.0
  0
SPLINE
  5
14c
100
AcDbEntity
  8
Layer_1
 62
7
100
AcDbSpline
 70
8
 71
3
 72
8
 73
4
 74
0
 40
0
 40
0
 40
0
 40
0
 40
1
 40
1
 40
1
 40
1
 10
293.329694
 20
1590.035088
 30
0.0
 10
292.928398
 20
1587.272472
 30
0.0
 10
292.534414
 20
1584.505848
 30
0.0
 10
292.156254
 20
1581.727280
 30
0.0
  0
LWPOLYLINE
  5
14d
100
AcDbEntity
  8
Layer_1
 62
7
100
AcDbPolyline
 90
2
 70
0
 10
308.223446
 20
1593.016336
 30
0.0
 10
293.329694
 20
1590.035088
 30
0.0
  0
SPLINE
  5
14e
100
AcDbEntity
  8
Layer_1
 62
7
100
AcDbSpline
 70
8
 71
3
 72
8
 73
4
 74
0
 40
0
 40
0
 40
0
 40
0
 40
1
 40
1
 40
1
 40
1
 10
306.814070
 20
1584.661648
 30
0.0
 10
307.267822
 20
1587.466912
 30
0.0
 10
307.739542
 20
1590.249992
 30
0.0
 10
308.223446
 20
1593.016336
 30
0.0
  0
LWPOLYLINE
  5
14f
100
AcDbEntity
  8
Layer_1
 62
7
100
AcDbPolyline
 90
2
 70
0
 10
292.156254
 20
1581.727280
 30
0.0
 10
306.814070
 20
1584.661648
 30
0.0
  0
LWPOLYLINE
  5
150
100
AcDbEntity
  8
Layer_1
 62
7
100
AcDbPolyline
 90
1
 70
1
 10
308.223446
 20
1593.016336
 30
0.0
  0
SPLINE
  5
151
100
AcDbEntity
  8
Layer_1
 62
7
100
AcDbSpline
 70
8
 71
3
 72
8
 73
4
 74
0
 40
0
 40
0
 40
0
 40
0
 40
1
 40
1
 40
1
 40
1
 10
261.678133
 20
1575.625712
 30
0.0
 10
264.286269
 20
1578.998000
 30
0.0
 10
266.922598
 20
1582.192752
 30
0.0
 10
269.607822
 20
1585.288216
 30
0.0
  0
LWPOLYLINE
  5
152
100
AcDbEntity
  8
Layer_1
 62
7
100
AcDbPolyline
 90
6
 70
0
 10
269.607822
 20
1585.288216
 30
0.0
 10
212.028133
 20
1573.764776
 30
0.0
 10
247.359381
 20
1441.688215
 30
0.0
 10
247.359381
 20
1471.844463
 30
0.0
 10
221.720317
 20
1567.627280
 30
0.0
 10
261.678133
 20
1575.625712
 30
0.0
  0
SPLINE
  5
153
100
AcDbEntity
  8
Layer_1
 62
7
100
AcDbSpline
 70
8
 71
3
 72
8
 73
4
 74
0
 40
0
 40
0
 40
0
 40
0
 40
1
 40
1
 40
1
 40
1
 10
678.265633
 20
1585.139776
 30
0.0
 10
677.958497
 20
1583.260888
 30
0.0
 10
677.673337
 20
1581.398912
 30
0.0
 10
677.382825
 20
1579.533528
 30
0.0
  0
LWPOLYLINE
  5
154
100
AcDbEntity
  8
Layer_1
 62
7
100
AcDbPolyline
 90
1
 70
1
 10
269.607822
 20
1585.288216
 30
0.0
  0
SPLINE
  5
155
100
AcDbEntity
  8
Layer_1
 62
7
100
AcDbSpline
 70
8
 71
3
 72
8
 73
4
 74
0
 40
0
 40
0
 40
0
 40
0
 40
1
 40
1
 40
1
 40
1
 10
684.985946
 20
1578.011648
 30
0.0
 10
682.826178
 20
1580.369424
 30
0.0
 10
680.600953
 20
1582.741600
 30
0.0
 10
678.265633
 20
1585.139776
 30
0.0
  0
LWPOLYLINE
  5
156
100
AcDbEntity
  8
Layer_1
 62
7
100
AcDbPolyline
 90
2
 70
0
 10
677.382825
 20
1579.533528
 30
0.0
 10
684.985946
 20
1578.011648
 30
0.0
  0
SPLINE
  5
157
100
AcDbEntity
  8
Layer_1
 62
7
100
AcDbSpline
 70
8
 71
3
 72
8
 73
4
 74
0
 40
0
 40
0
 40
0
 40
0
 40
1
 40
1
 40
1
 40
1
 10
699.142194
 20
1583.222592
 30
0.0
 10
702.268586
 20
1579.948968
 30
0.0
 10
705.247450
 20
1576.675400
 30
0.0
 10
708.050010
 20
1573.396024
 30
0.0
  0
LWPOLYLINE
  5
158
100
AcDbEntity
  8
Layer_1
 62
7
100
AcDbPolyline
 90
1
 70
1
 10
678.265633
 20
1585.139776
 30
0.0
  0
SPLINE
  5
159
100
AcDbEntity
  8
Layer_1
 62
7
100
AcDbSpline
 70
8
 71
3
 72
8
 73
4
 74
0
 40
0
 40
0
 40
0
 40
0
 40
1
 40
1
 40
1
 40
1
 10
730.000010
 20
1542.013216
 30
0.0
 10
731.864282
 20
1538.625440
 30
0.0
 10
733.583634
 20
1535.212904
 30
0.0
 10
735.170322
 20
1531.769464
 30
0.0
  0
LWPOLYLINE
  5
15a
100
AcDbEntity
  8
Layer_1
 62
7
100
AcDbPolyline
 90
3
 70
0
 10
708.050010
 20
1573.396024
 30
0.0
 10
736.873450
 20
1567.627280
 30
0.0
 10
730.000010
 20
1542.013216
 30
0.0
  0
LWPOLYLINE
  5
15b
100
AcDbEntity
  8
Layer_1
 62
7
100
AcDbPolyline
 90
4
 70
0
 10
735.170322
 20
1531.769464
 30
0.0
 10
746.404698
 20
1573.764776
 30
0.0
 10
699.142194
 20
1583.222592
 30
0.0
 10
699.142194
 20
1583.222592
 30
0.0
  0
LWPOLYLINE
  5
15c
100
AcDbEntity
  8
Layer_1
 62
7
100
AcDbPolyline
 90
5
 70
1
 10
902.162492
 20
1560.222592
 30
0.0
 10
902.565612
 20
1544.446024
 30
0.0
 10
911.250012
 20
1543.227280
 30
0.0
 10
910.843772
 20
1559.000712
 30
0.0
 10
902.162492
 20
1560.222592
 30
0.0
  0
LWPOLYLINE
  5
15d
100
AcDbEntity
  8
Layer_1
 62
7
100
AcDbPolyline
 90
5
 70
1
 10
29.789066
 20
1556.494464
 30
0.0
 10
19.545316
 20
1555.052272
 30
0.0
 10
19.537503
 20
1539.330400
 30
0.0
 10
29.789066
 20
1540.771024
 30
0.0
 10
29.789066
 20
1556.494464
 30
0.0
  0
LWPOLYLINE
  5
15e
100
AcDbEntity
  8
Layer_1
 62
7
100
AcDbPolyline
 90
5
 70
1
 10
903.175052
 20
1520.689776
 30
0.0
 10
903.378172
 20
1512.717904
 30
0.0
 10
912.065612
 20
1511.489775
 30
0.0
 10
911.860972
 20
1519.467904
 30
0.0
 10
903.175052
 20
1520.689776
 30
0.0
  0
SPLINE
  5
15f
100
AcDbEntity
  8
Layer_1
 62
7
100
AcDbSpline
 70
8
 71
3
 72
8
 73
4
 74
0
 40
0
 40
0
 40
0
 40
0
 40
1
 40
1
 40
1
 40
1
 10
675.821881
 20
1340.113214
 30
0.0
 10
676.596625
 20
1334.294222
 30
0.0
 10
677.401993
 20
1328.528766
 30
0.0
 10
678.234385
 20
1322.839774
 30
0.0
  0
SPLINE
  5
160
100
AcDbEntity
  8
Layer_1
 62
7
100
AcDbSpline
 70
8
 71
3
 72
8
 73
4
 74
0
 40
0
 40
0
 40
0
 40
0
 40
1
 40
1
 40
1
 40
1
 10
678.234385
 20
1322.839774
 30
0.0
 10
678.733057
 20
1323.358054
 30
0.0
 10
679.205097
 20
1323.870222
 30
0.0
 10
679.695321
 20
1324.386646
 30
0.0
  0
LWPOLYLINE
  5
161
100
AcDbEntity
  8
Layer_1
 62
7
100
AcDbPolyline
 90
2
 70
0
 10
723.804698
 20
1518.925712
 30
0.0
 10
675.821881
 20
1340.113214
 30
0.0
  0
SPLINE
  5
162
100
AcDbEntity
  8
Layer_1
 62
7
100
AcDbSpline
 70
8
 71
3
 72
8
 73
4
 74
0
 40
0
 40
0
 40
0
 40
0
 40
1
 40
1
 40
1
 40
1
 10
728.240634
 20
1505.864775
 30
0.0
 10
726.985746
 20
1510.230647
 30
0.0
 10
725.519154
 20
1514.579792
 30
0.0
 10
723.804698
 20
1518.925712
 30
0.0
  0
LWPOLYLINE
  5
163
100
AcDbEntity
  8
Layer_1
 62
7
100
AcDbPolyline
 90
2
 70
0
 10
679.695321
 20
1324.386646
 30
0.0
 10
728.240634
 20
1505.864775
 30
0.0
  0
LWPOLYLINE
  5
164
100
AcDbEntity
  8
Layer_1
 62
7
100
AcDbPolyline
 90
1
 70
1
 10
723.804698
 20
1518.925712
 30
0.0
  0
LWPOLYLINE
  5
165
100
AcDbEntity
  8
Layer_1
 62
7
100
AcDbPolyline
 90
5
 70
1
 10
29.787503
 20
1517.105400
 30
0.0
 10
19.526566
 20
1515.661648
 30
0.0
 10
19.523441
 20
1507.688215
 30
0.0
 10
29.787503
 20
1509.138215
 30
0.0
 10
29.787503
 20
1517.105400
 30
0.0
  0
SPLINE
  5
166
100
AcDbEntity
  8
Layer_1
 62
7
100
AcDbSpline
 70
8
 71
3
 72
8
 73
4
 74
0
 40
0
 40
0
 40
0
 40
0
 40
1
 40
1
 40
1
 40
1
 10
959.478172
 20
1323.216334
 30
0.0
 10
959.478172
 20
1323.216334
 30
0.0
 10
932.720332
 20
1323.216334
 30
0.0
 10
932.720332
 20
1323.216334
 30
0.0
  0
SPLINE
  5
167
100
AcDbEntity
  8
Layer_1
 62
7
100
AcDbSpline
 70
8
 71
3
 72
8
 73
4
 74
0
 40
0
 40
0
 40
0
 40
0
 40
1
 40
1
 40
1
 40
1
 10
932.720332
 20
1323.216334
 30
0.0
 10
933.506944
 20
1321.033081
 30
0.0
 10
933.912603
 20
1318.735932
 30
0.0
 10
933.920332
 20
1316.421022
 30
0.0
  0
SPLINE
  5
168
100
AcDbEntity
  8
Layer_1
 62
7
100
AcDbSpline
 70
8
 71
3
 72
8
 73
4
 74
0
 40
0
 40
0
 40
0
 40
0
 40
1
 40
1
 40
1
 40
1
 10
933.920332
 20
1316.421022
 30
0.0
 10
933.911961
 20
1316.047155
 30
0.0
 10
933.893207
 20
1315.673580
 30
0.0
 10
933.864092
 20
1315.300710
 30
0.0
  0
LWPOLYLINE
  5
169
100
AcDbEntity
  8
Layer_1
 62
7
100
AcDbPolyline
 90
4
 70
0
 10
940.898412
 20
1515.380400
 30
0.0
 10
940.521852
 20
1507.466335
 30
0.0
 10
1006.323453
 20
1498.164775
 30
0.0
 10
959.478172
 20
1323.216334
 30
0.0
  0
LWPOLYLINE
  5
16a
100
AcDbEntity
  8
Layer_1
 62
7
100
AcDbPolyline
 90
5
 70
0
 10
933.864092
 20
1315.300710
 30
0.0
 10
965.454732
 20
1315.300710
 30
0.0
 10
1016.178173
 20
1504.786647
 30
0.0
 10
940.898412
 20
1515.380400
 30
0.0
 10
940.898412
 20
1515.380400
 30
0.0
  0
LWPOLYLINE
  5
16b
100
AcDbEntity
  8
Layer_1
 62
7
100
AcDbPolyline
 90
7
 70
1
 10
-23.456247
 20
1509.613215
 30
0.0
 10
-57.746873
 20
1504.786647
 30
0.0
 10
-23.403122
 20
1376.492902
 30
0.0
 10
-23.415622
 20
1406.756958
 30
0.0
 10
-47.890622
 20
1498.164775
 30
0.0
 10
-23.453122
 20
1501.616335
 30
0.0
 10
-23.456247
 20
1509.613215
 30
0.0
  0
LWPOLYLINE
  5
16c
100
AcDbEntity
  8
Layer_1
 62
7
100
AcDbPolyline
 90
9
 70
1
 10
-98.614062
 20
1506.402271
 30
0.0
 10
-92.478126
 20
1483.625711
 30
0.0
 10
-253.210935
 20
1458.586647
 30
0.0
 10
-214.924999
 20
1315.300710
 30
0.0
 10
-47.406247
 20
1315.300710
 30
0.0
 10
-41.107810
 20
1291.877277
 30
0.0
 10
-232.853127
 20
1291.877277
 30
0.0
 10
-282.610936
 20
1477.650711
 30
0.0
 10
-98.614062
 20
1506.402271
 30
0.0
  0
LWPOLYLINE
  5
16d
100
AcDbEntity
  8
Layer_1
 62
7
100
AcDbPolyline
 90
9
 70
1
 10
1057.046893
 20
1506.402271
 30
0.0
 10
1241.204735
 20
1477.650711
 30
0.0
 10
1191.285934
 20
1291.877277
 30
0.0
 10
999.537533
 20
1291.877277
 30
0.0
 10
1005.839053
 20
1315.300710
 30
0.0
 10
1173.357854
 20
1315.300710
 30
0.0
 10
1211.804735
 20
1458.586647
 30
0.0
 10
1051.071853
 20
1483.625711
 30
0.0
 10
1057.046893
 20
1506.402271
 30
0.0
  0
LWPOLYLINE
  5
16e
100
AcDbEntity
  8
Layer_1
 62
7
100
AcDbPolyline
 90
5
 70
1
 10
-90.539062
 20
1476.035087
 30
0.0
 10
-49.506247
 20
1323.216334
 30
0.0
 10
-208.945311
 20
1323.216334
 30
0.0
 10
-243.515623
 20
1452.127279
 30
0.0
 10
-90.539062
 20
1476.035087
 30
0.0
  0
LWPOLYLINE
  5
16f
100
AcDbEntity
  8
Layer_1
 62
7
100
AcDbPolyline
 90
5
 70
1
 10
1048.971853
 20
1476.035087
 30
0.0
 10
1201.948414
 20
1452.127279
 30
0.0
 10
1167.378174
 20
1323.216334
 30
0.0
 10
1007.939053
 20
1323.216334
 30
0.0
 10
1048.971853
 20
1476.035087
 30
0.0
  0
SPLINE
  5
170
100
AcDbEntity
  8
Layer_1
 62
7
100
AcDbSpline
 70
8
 71
3
 72
8
 73
4
 74
0
 40
0
 40
0
 40
0
 40
0
 40
1
 40
1
 40
1
 40
1
 10
718.609386
 20
1379.185086
 30
0.0
 10
726.960626
 20
1396.983646
 30
0.0
 10
731.220346
 20
1414.625207
 30
0.0
 10
733.100010
 20
1433.217903
 30
0.0
  0
LWPOLYLINE
  5
171
100
AcDbEntity
  8
Layer_1
 62
7
100
AcDbPolyline
 90
2
 70
0
 10
733.100010
 20
1433.217903
 30
0.0
 10
718.609386
 20
1379.185086
 30
0.0
  0
LWPOLYLINE
  5
172
100
AcDbEntity
  8
Layer_1
 62
7
100
AcDbPolyline
 90
1
 70
1
 10
733.100010
 20
1433.217903
 30
0.0
  0
LWPOLYLINE
  5
173
100
AcDbEntity
  8
Layer_1
 62
7
100
AcDbPolyline
 90
5
 70
1
 10
19.435941
 20
1323.216334
 30
0.0
 10
19.432816
 20
1315.300710
 30
0.0
 10
29.781253
 20
1315.300710
 30
0.0
 10
29.782816
 20
1323.216334
 30
0.0
 10
19.435941
 20
1323.216334
 30
0.0
  0
LWPOLYLINE
  5
174
100
AcDbEntity
  8
Layer_1
 62
7
100
AcDbPolyline
 90
5
 70
1
 10
46.150003
 20
1323.216334
 30
0.0
 10
46.142191
 20
1315.300710
 30
0.0
 10
58.635941
 20
1315.300710
 30
0.0
 10
61.304691
 20
1323.216334
 30
0.0
 10
46.150003
 20
1323.216334
 30
0.0
  0
LWPOLYLINE
  5
175
100
AcDbEntity
  8
Layer_1
 62
7
100
AcDbPolyline
 90
5
 70
1
 10
78.437504
 20
1323.216334
 30
0.0
 10
75.787504
 20
1315.300710
 30
0.0
 10
100.625004
 20
1315.300710
 30
0.0
 10
97.987508
 20
1323.216334
 30
0.0
 10
78.437504
 20
1323.216334
 30
0.0
  0
SPLINE
  5
176
100
AcDbEntity
  8
Layer_1
 62
7
100
AcDbSpline
 70
8
 71
3
 72
8
 73
4
 74
0
 40
0
 40
0
 40
0
 40
0
 40
1
 40
1
 40
1
 40
1
 10
291.789070
 20
1323.216334
 30
0.0
 10
292.202934
 20
1320.581694
 30
0.0
 10
292.638414
 20
1317.943678
 30
0.0
 10
293.092190
 20
1315.300710
 30
0.0
  0
LWPOLYLINE
  5
177
100
AcDbEntity
  8
Layer_1
 62
7
100
AcDbPolyline
 90
5
 70
1
 10
115.218756
 20
1323.216334
 30
0.0
 10
117.857820
 20
1315.300710
 30
0.0
 10
126.970316
 20
1315.300710
 30
0.0
 10
124.303132
 20
1323.216334
 30
0.0
 10
115.218756
 20
1323.216334
 30
0.0
  0
SPLINE
  5
178
100
AcDbEntity
  8
Layer_1
 62
7
100
AcDbSpline
 70
8
 71
3
 72
8
 73
4
 74
0
 40
0
 40
0
 40
0
 40
0
 40
1
 40
1
 40
1
 40
1
 10
308.592190
 20
1315.300710
 30
0.0
 10
308.171486
 20
1317.956750
 30
0.0
 10
307.765246
 20
1320.589838
 30
0.0
 10
307.364070
 20
1323.216334
 30
0.0
  0
LWPOLYLINE
  5
179
100
AcDbEntity
  8
Layer_1
 62
7
100
AcDbPolyline
 90
2
 70
0
 10
293.092190
 20
1315.300710
 30
0.0
 10
308.592190
 20
1315.300710
 30
0.0
  0
SPLINE
  5
17a
100
AcDbEntity
  8
Layer_1
 62
7
100
AcDbSpline
 70
8
 71
3
 72
8
 73
4
 74
0
 40
0
 40
0
 40
0
 40
0
 40
1
 40
1
 40
1
 40
1
 10
323.146878
 20
1323.216334
 30
0.0
 10
323.163382
 20
1323.103398
 30
0.0
 10
323.178806
 20
1322.988590
 30
0.0
 10
323.195318
 20
1322.875710
 30
0.0
  0
SPLINE
  5
17b
100
AcDbEntity
  8
Layer_1
 62
7
100
AcDbSpline
 70
8
 71
3
 72
8
 73
4
 74
0
 40
0
 40
0
 40
0
 40
0
 40
1
 40
1
 40
1
 40
1
 10
323.195318
 20
1322.875710
 30
0.0
 10
323.305158
 20
1322.989870
 30
0.0
 10
323.407766
 20
1323.102270
 30
0.0
 10
323.517190
 20
1323.216334
 30
0.0
  0
LWPOLYLINE
  5
17c
100
AcDbEntity
  8
Layer_1
 62
7
100
AcDbPolyline
 90
3
 70
0
 10
307.364070
 20
1323.216334
 30
0.0
 10
291.789070
 20
1323.216334
 30
0.0
 10
291.789070
 20
1323.216334
 30
0.0
  0
SPLINE
  5
17d
100
AcDbEntity
  8
Layer_1
 62
7
100
AcDbSpline
 70
8
 71
3
 72
8
 73
4
 74
0
 40
0
 40
0
 40
0
 40
0
 40
1
 40
1
 40
1
 40
1
 10
345.129694
 20
1323.216334
 30
0.0
 10
342.585422
 20
1320.503014
 30
0.0
 10
339.948374
 20
1317.862302
 30
0.0
 10
337.218758
 20
1315.300710
 30
0.0
  0
LWPOLYLINE
  5
17e
100
AcDbEntity
  8
Layer_1
 62
7
100
AcDbPolyline
 90
3
 70
0
 10
323.517190
 20
1323.216334
 30
0.0
 10
323.146878
 20
1323.216334
 30
0.0
 10
323.146878
 20
1323.216334
 30
0.0
  0
LWPOLYLINE
  5
17f
100
AcDbEntity
  8
Layer_1
 62
7
100
AcDbPolyline
 90
5
 70
0
 10
337.218758
 20
1315.300710
 30
0.0
 10
420.910943
 20
1315.300710
 30
0.0
 10
420.910943
 20
1323.216334
 30
0.0
 10
345.129694
 20
1323.216334
 30
0.0
 10
345.129694
 20
1323.216334
 30
0.0
  0
LWPOLYLINE
  5
180
100
AcDbEntity
  8
Layer_1
 62
7
100
AcDbPolyline
 90
5
 70
1
 10
446.929695
 20
1323.216334
 30
0.0
 10
446.918759
 20
1315.300710
 30
0.0
 10
455.667191
 20
1315.300710
 30
0.0
 10
455.656255
 20
1323.216334
 30
0.0
 10
446.929695
 20
1323.216334
 30
0.0
  0
SPLINE
  5
181
100
AcDbEntity
  8
Layer_1
 62
7
100
AcDbSpline
 70
8
 71
3
 72
8
 73
4
 74
0
 40
0
 40
0
 40
0
 40
0
 40
1
 40
1
 40
1
 40
1
 10
631.195321
 20
1315.300710
 30
0.0
 10
628.785273
 20
1317.901606
 30
0.0
 10
626.427169
 20
1320.545598
 30
0.0
 10
624.135945
 20
1323.216334
 30
0.0
  0
LWPOLYLINE
  5
182
100
AcDbEntity
  8
Layer_1
 62
7
100
AcDbPolyline
 90
3
 70
0
 10
472.026567
 20
1323.216334
 30
0.0
 10
472.026567
 20
1315.300710
 30
0.0
 10
631.195321
 20
1315.300710
 30
0.0
  0
SPLINE
  5
183
100
AcDbEntity
  8
Layer_1
 62
7
100
AcDbSpline
 70
8
 71
3
 72
8
 73
4
 74
0
 40
0
 40
0
 40
0
 40
0
 40
1
 40
1
 40
1
 40
1
 10
646.821881
 20
1323.216334
 30
0.0
 10
647.235577
 20
1320.581686
 30
0.0
 10
647.671409
 20
1317.943670
 30
0.0
 10
648.125009
 20
1315.300710
 30
0.0
  0
LWPOLYLINE
  5
184
100
AcDbEntity
  8
Layer_1
 62
7
100
AcDbPolyline
 90
3
 70
0
 10
624.135945
 20
1323.216334
 30
0.0
 10
472.026567
 20
1323.216334
 30
0.0
 10
472.026567
 20
1323.216334
 30
0.0
  0
SPLINE
  5
185
100
AcDbEntity
  8
Layer_1
 62
7
100
AcDbSpline
 70
8
 71
3
 72
8
 73
4
 74
0
 40
0
 40
0
 40
0
 40
0
 40
1
 40
1
 40
1
 40
1
 10
663.625009
 20
1315.300710
 30
0.0
 10
663.204313
 20
1317.957054
 30
0.0
 10
662.799601
 20
1320.589526
 30
0.0
 10
662.398449
 20
1323.216334
 30
0.0
  0
LWPOLYLINE
  5
186
100
AcDbEntity
  8
Layer_1
 62
7
100
AcDbPolyline
 90
2
 70
0
 10
648.125009
 20
1315.300710
 30
0.0
 10
663.625009
 20
1315.300710
 30
0.0
  0
SPLINE
  5
187
100
AcDbEntity
  8
Layer_1
 62
7
100
AcDbSpline
 70
8
 71
3
 72
8
 73
4
 74
0
 40
0
 40
0
 40
0
 40
0
 40
1
 40
1
 40
1
 40
1
 10
789.557827
 20
1323.216334
 30
0.0
 10
792.234515
 20
1319.916102
 30
0.0
 10
795.851259
 20
1317.236990
 30
0.0
 10
799.957827
 20
1315.300710
 30
0.0
  0
LWPOLYLINE
  5
188
100
AcDbEntity
  8
Layer_1
 62
7
100
AcDbPolyline
 90
3
 70
0
 10
662.398449
 20
1323.216334
 30
0.0
 10
646.821881
 20
1323.216334
 30
0.0
 10
646.821881
 20
1323.216334
 30
0.0
  0
SPLINE
  5
189
100
AcDbEntity
  8
Layer_1
 62
7
100
AcDbSpline
 70
8
 71
3
 72
8
 73
4
 74
0
 40
0
 40
0
 40
0
 40
0
 40
1
 40
1
 40
1
 40
1
 10
831.689051
 20
1315.300710
 30
0.0
 10
835.730251
 20
1317.230710
 30
0.0
 10
839.261371
 20
1319.905526
 30
0.0
 10
841.848411
 20
1323.216334
 30
0.0
  0
LWPOLYLINE
  5
18a
100
AcDbEntity
  8
Layer_1
 62
7
100
AcDbPolyline
 90
2
 70
0
 10
799.957827
 20
1315.300710
 30
0.0
 10
831.689051
 20
1315.300710
 30
0.0
  0
SPLINE
  5
18b
100
AcDbEntity
  8
Layer_1
 62
7
100
AcDbSpline
 70
8
 71
3
 72
8
 73
4
 74
0
 40
0
 40
0
 40
0
 40
0
 40
1
 40
1
 40
1
 40
1
 10
817.403131
 20
1323.216334
 30
0.0
 10
817.403531
 20
1323.065862
 30
0.0
 10
817.409371
 20
1320.186646
 30
0.0
 10
817.409371
 20
1320.186646
 30
0.0
  0
SPLINE
  5
18c
100
AcDbEntity
  8
Layer_1
 62
7
100
AcDbSpline
 70
8
 71
3
 72
8
 73
4
 74
0
 40
0
 40
0
 40
0
 40
0
 40
1
 40
1
 40
1
 40
1
 10
817.409371
 20
1320.186646
 30
0.0
 10
812.688731
 20
1320.228262
 30
0.0
 10
808.350571
 20
1321.321606
 30
0.0
 10
804.695291
 20
1323.216334
 30
0.0
  0
LWPOLYLINE
  5
18d
100
AcDbEntity
  8
Layer_1
 62
7
100
AcDbPolyline
 90
2
 70
0
 10
841.848411
 20
1323.216334
 30
0.0
 10
817.403131
 20
1323.216334
 30
0.0
  0
SPLINE
  5
18e
100
AcDbEntity
  8
Layer_1
 62
7
100
AcDbSpline
 70
8
 71
3
 72
8
 73
4
 74
0
 40
0
 40
0
 40
0
 40
0
 40
1
 40
1
 40
1
 40
1
 10
859.709371
 20
1323.216334
 30
0.0
 10
858.424651
 20
1320.401190
 30
0.0
 10
856.776731
 20
1317.759782
 30
0.0
 10
854.862491
 20
1315.300710
 30
0.0
  0
LWPOLYLINE
  5
18f
100
AcDbEntity
  8
Layer_1
 62
7
100
AcDbPolyline
 90
3
 70
0
 10
804.695291
 20
1323.216334
 30
0.0
 10
789.557827
 20
1323.216334
 30
0.0
 10
789.557827
 20
1323.216334
 30
0.0
  0
SPLINE
  5
190
100
AcDbEntity
  8
Layer_1
 62
7
100
AcDbSpline
 70
8
 71
3
 72
8
 73
4
 74
0
 40
0
 40
0
 40
0
 40
0
 40
1
 40
1
 40
1
 40
1
 10
891.762492
 20
1315.300710
 30
0.0
 10
891.738581
 20
1315.673718
 30
0.0
 10
891.725030
 20
1316.047293
 30
0.0
 10
891.721852
 20
1316.421022
 30
0.0
  0
SPLINE
  5
191
100
AcDbEntity
  8
Layer_1
 62
7
100
AcDbSpline
 70
8
 71
3
 72
8
 73
4
 74
0
 40
0
 40
0
 40
0
 40
0
 40
1
 40
1
 40
1
 40
1
 10
891.721852
 20
1316.421022
 30
0.0
 10
891.730095
 20
1318.736021
 30
0.0
 10
892.136295
 20
1321.033173
 30
0.0
 10
892.923452
 20
1323.216334
 30
0.0
  0
LWPOLYLINE
  5
192
100
AcDbEntity
  8
Layer_1
 62
7
100
AcDbPolyline
 90
2
 70
0
 10
854.862491
 20
1315.300710
 30
0.0
 10
891.762492
 20
1315.300710
 30
0.0
  0
LWPOLYLINE
  5
193
100
AcDbEntity
  8
Layer_1
 62
7
100
AcDbPolyline
 90
3
 70
0
 10
892.923452
 20
1323.216334
 30
0.0
 10
859.709371
 20
1323.216334
 30
0.0
 10
859.709371
 20
1323.216334
 30
0.0
  0
ENDSEC
  0
SECTION
  2
OBJECTS
  0
DICTIONARY
  5
C
330
0
100
AcDbDictionary
  3
ACAD_GROUP
350
D
  3
ACAD_MLINESTYLE
350
17
  0
DICTIONARY
  5
D
330
C
100
AcDbDictionary
  0
DICTIONARY
  5
1A
330
C
100
AcDbDictionary
  0
DICTIONARY
  5
17
330
C
100
AcDbDictionary
  3
STANDARD
350
18
  0
DICTIONARY
  5
19
330
C
100
AcDbDictionary
  0
ENDSEC
  0
EOF
